<?xml version="1.0" encoding="utf-8"?>
<!-- Generator: Adobe Illustrator 23.0.5, SVG Export Plug-In . SVG Version: 6.00 Build 0)  -->
<svg version="1.1" id="Layer_1" xmlns="http://www.w3.org/2000/svg" xmlns:xlink="http://www.w3.org/1999/xlink" x="0px" y="0px"
	 viewBox="0 0 1160.4 306" style="enable-background:new 0 0 1160.4 306;" xml:space="preserve">
<style type="text/css">
	.st0{clip-path:url(#SVGID_3_);fill:url(#SVGID_4_);}
	.st1{clip-path:url(#SVGID_7_);fill:url(#SVGID_8_);}
	.st2{clip-path:url(#SVGID_11_);fill:url(#SVGID_12_);}
	.st3{clip-path:url(#SVGID_14_);fill:url(#SVGID_15_);}
	.st4{fill:#FFFFFF;}
</style>
<g>
	<g>
		<g>
			<g>
				<defs>
					<path id="SVGID_1_" d="M991,235.1v45.4c0,8.9,3.6,16,10.7,21.3c4.8,2.8,9.7,4.2,14.7,4.2h22.1v-12.5h-22c-2.5,0-5-1.1-7.3-3.4
						c-2.5-2.6-3.7-6.3-3.7-11v-44H991z"/>
				</defs>
				<linearGradient id="SVGID_2_" gradientUnits="userSpaceOnUse" x1="991.0391" y1="270.5546" x2="1038.479" y2="270.5546">
					<stop  offset="0" style="stop-color:#D2A200"/>
					<stop  offset="2.793301e-03" style="stop-color:#B1D62B"/>
					<stop  offset="0.8352" style="stop-color:#D4F94B"/>
					<stop  offset="1" style="stop-color:#D5FF63"/>
				</linearGradient>
				<use xlink:href="#SVGID_1_"  style="overflow:visible;fill:url(#SVGID_2_);"/>
				<clipPath id="SVGID_3_">
					<use xlink:href="#SVGID_1_"  style="overflow:visible;"/>
				</clipPath>
				
					<linearGradient id="SVGID_4_" gradientUnits="userSpaceOnUse" x1="-350.2264" y1="-276.514" x2="-349.2264" y2="-276.514" gradientTransform="matrix(47.4411 0 0 -47.4411 17606.1621 -12847.5693)">
					<stop  offset="0" style="stop-color:#D2A200"/>
					<stop  offset="2.793301e-03" style="stop-color:#B1D62B"/>
					<stop  offset="0.8352" style="stop-color:#D4F94B"/>
					<stop  offset="1" style="stop-color:#D5FF63"/>
				</linearGradient>
				<rect x="991" y="235.1" class="st0" width="47.4" height="70.9"/>
			</g>
			<g>
				<defs>
					<path id="SVGID_5_" d="M1062.4,288c0-1,0.2-1.9,0.6-2.7c1.1-1.8,3.8-2.7,8.2-2.7h11.6v4.4c0,0.7-0.1,1.4-0.2,2
						c-1.5,3.1-4.6,4.7-9.4,4.7h-2.5C1065.1,293.1,1062.4,291.2,1062.4,288 M1057.2,257.1v11.2c3.7-1.8,8.3-2.7,13.9-2.7h1.4
						c6.8,0,10.2,2.4,10.2,7.3c0,0.2-0.1,0.2-0.2,0.2h-12.3c-4.5,0-8.5,0.5-11.9,1.5c-6.1,2.2-9.2,6.5-9.2,12.9v1.4
						c0,1.6,0.3,3.3,0.8,5.1c3.1,7.7,10.8,11.6,23.1,11.6c3.5,0,7-0.6,10.6-1.8c8.2-3.5,12.3-8.8,12.3-15.7v-15.2
						c0-2.6-0.5-5.4-1.5-8.3c-3-6.7-9.6-10-19.8-10C1067.4,254.8,1061.5,255.6,1057.2,257.1"/>
				</defs>
				<linearGradient id="SVGID_6_" gradientUnits="userSpaceOnUse" x1="1049.202" y1="280.2601" x2="1096.0031" y2="280.2601">
					<stop  offset="0" style="stop-color:#D2A200"/>
					<stop  offset="2.793301e-03" style="stop-color:#B1D62B"/>
					<stop  offset="0.8352" style="stop-color:#D4F94B"/>
					<stop  offset="1" style="stop-color:#D5FF63"/>
				</linearGradient>
				<use xlink:href="#SVGID_5_"  style="overflow:visible;fill:url(#SVGID_6_);"/>
				<clipPath id="SVGID_7_">
					<use xlink:href="#SVGID_5_"  style="overflow:visible;"/>
				</clipPath>
				
					<linearGradient id="SVGID_8_" gradientUnits="userSpaceOnUse" x1="-350.1611" y1="-276.7263" x2="-349.1611" y2="-276.7263" gradientTransform="matrix(46.8007 0 0 -46.8007 17436.9727 -12670.7129)">
					<stop  offset="0" style="stop-color:#D2A200"/>
					<stop  offset="2.793301e-03" style="stop-color:#B1D62B"/>
					<stop  offset="0.8352" style="stop-color:#D4F94B"/>
					<stop  offset="1" style="stop-color:#D5FF63"/>
				</linearGradient>
				<rect x="1049.2" y="254.8" class="st1" width="46.8" height="51"/>
			</g>
			<g>
				<defs>
					<path id="SVGID_9_" d="M1122.2,285.7c-0.7-2-1-4-1-5.8v-0.7c0-5.7,2.3-9.9,7-12.4c2-0.7,3.7-1.1,5.2-1.1c5.8,0,9.8,3,11.8,9.1
						c0.4,2.1,0.6,3.7,0.6,4.7c0,5.6-2.1,9.8-6.2,12.4c-1.8,1-3.8,1.5-5.8,1.5h-1C1128.1,293.3,1124.5,290.8,1122.2,285.7
						 M1106.7,235.1v45.1c0,8.7,3.4,15.7,10.1,20.8c4.5,3.2,10.1,4.8,16.8,4.8c9.9,0,17.3-3.6,22.4-10.7c3-4.4,4.4-9.6,4.4-15.6
						c0-9.7-3.9-17.2-11.8-22.4c-4.4-2.5-9.4-3.7-14.9-3.7h-0.5c-4.2,0-7.9,1-11.2,3.1v-21.4H1106.7z"/>
				</defs>
				<linearGradient id="SVGID_10_" gradientUnits="userSpaceOnUse" x1="1106.726" y1="270.4316" x2="1160.423" y2="270.4316">
					<stop  offset="0" style="stop-color:#D2A200"/>
					<stop  offset="2.793301e-03" style="stop-color:#B1D62B"/>
					<stop  offset="0.8352" style="stop-color:#D4F94B"/>
					<stop  offset="1" style="stop-color:#D5FF63"/>
				</linearGradient>
				<use xlink:href="#SVGID_9_"  style="overflow:visible;fill:url(#SVGID_10_);"/>
				<clipPath id="SVGID_11_">
					<use xlink:href="#SVGID_9_"  style="overflow:visible;"/>
				</clipPath>
				
					<linearGradient id="SVGID_12_" gradientUnits="userSpaceOnUse" x1="-350.7826" y1="-274.7064" x2="-349.7826" y2="-274.7064" gradientTransform="matrix(53.6976 0 0 -53.6976 19942.9102 -14480.6416)">
					<stop  offset="0" style="stop-color:#D2A200"/>
					<stop  offset="2.793301e-03" style="stop-color:#B1D62B"/>
					<stop  offset="0.8352" style="stop-color:#D4F94B"/>
					<stop  offset="1" style="stop-color:#D5FF63"/>
				</linearGradient>
				<rect x="1106.7" y="235.1" class="st2" width="53.7" height="70.6"/>
			</g>
		</g>
		<g>
			<defs>
				<path id="SVGID_13_" d="M86.5,66.9C32.2,89.4,2.9,138.2,0.6,191.3c-0.6,12.3,3.5,16.1,15.8,16.1c18.4,0,36.9,0.4,55.3-0.1
					c9.6-0.3,19.3-1.2,28.6-3.3c47.9-10.9,80.8-59.7,72.3-107.6c-3.4-18.9-0.4-16.7-19-12.4c-6,1.4-11.8,3.8-17.6,5.7
					c10,35.2-5.2,66.8-38,80.5c-11.4,4.8-23.2,4.4-35.3,4.1c-6.3-0.2-12.7-0.4-19.2,0.2c12.9-34.2,34.2-59.9,63.8-78.6
					c29.6-18.8,57.6-31.3,93.9-29.2c-1.9-1-2.5-1.4-3.1-1.7c-17.8-8.2-34.7-11.9-51.6-11.9C126.9,53.2,107.4,58.2,86.5,66.9"/>
			</defs>
			<clipPath id="SVGID_14_">
				<use xlink:href="#SVGID_13_"  style="overflow:visible;"/>
			</clipPath>
			
				<linearGradient id="SVGID_15_" gradientUnits="userSpaceOnUse" x1="-353.8716" y1="-264.6678" x2="-352.8716" y2="-264.6678" gradientTransform="matrix(200.6958 0 0 -200.6958 71021.0469 -52987.1836)">
				<stop  offset="0" style="stop-color:#D2A200"/>
				<stop  offset="2.793301e-03" style="stop-color:#B1D62B"/>
				<stop  offset="0.8352" style="stop-color:#D4F94B"/>
				<stop  offset="1" style="stop-color:#D5FF63"/>
			</linearGradient>
			<rect y="53.2" class="st3" width="201.2" height="154.6"/>
		</g>
	</g>
	<g>
		<g>
			<rect x="196" y="67" class="st4" width="35.2" height="136.6"/>
			<rect x="196.2" y="17.3" class="st4" width="34.7" height="36.2"/>
			<rect x="434.6" y="66.2" class="st4" width="34.4" height="137.5"/>
			<rect x="434.8" y="17.4" class="st4" width="34.7" height="36.1"/>
			<path class="st4" d="M647.1,121.4c0-40.3,30.8-71.3,69.1-71.3c18,0,32.4,6.8,41.4,18.2V0h44.6v117.6c0,44.9-32.1,76.5-77.6,76.5
				C680,194.1,647.1,163,647.1,121.4 M725,155.4c18.8,0,32.7-14.2,32.7-33.5c0-19.1-13.9-33.2-32.7-33.2
				c-18.8,0-32.7,14.2-32.7,33.2C692.3,141.3,706.2,155.4,725,155.4"/>
			<path class="st4" d="M1004.2,117.2c0-41.5,31.2-73,74.1-73c33.2,0,60.8,19.5,71.4,51l-73.9,52.1c4.5,1.4,8.9,2,13.9,2
				c12.3,0,24.2-5,38.2-15.6V179c-15.3,8.6-29,12.5-44.3,12.5C1038,191.6,1004.2,160.4,1004.2,117.2 M1051.3,125.5l51-37.3
				c-5.9-5.6-13.7-8.4-22.6-8.4c-18.7,0-30.9,12.5-30.9,31.8C1048.8,116.6,1049.7,121.3,1051.3,125.5"/>
			<path class="st4" d="M561.3,4.8c29.9,0,51.2,12.2,63.8,36.6c1.3,2.8,2.6,6.3,3.9,10.6h-41.4c-2.5-5.3-7.4-9.4-14.6-12.5
				c-3.7-1.3-7.4-1.9-11-1.9h-2.6c-12.7,0-22.1,6.7-28.2,20c-1.7,5.3-2.4,12.2-2.1,20.6v1.9c-0.3-8,0-8.4,1-1h56.3v40.5h-55
				c-0.3,5.9-0.4,9.3-0.4,10.1c0,0.8,0.5,3.8,1.4,9.2c5.1,13.4,14,20.1,26.6,20.1h2.6c3.6,0,7.3-0.6,11-1.9
				c7.2-3.1,12.1-7.3,14.6-12.5h41.4c-1.3,4.3-2.6,7.8-3.9,10.6c-12.6,24.4-33.8,36.6-63.8,36.6c-17.7,0-32.5-4.2-44.4-12.7
				c-17.7-13.5-26.5-31.6-26.5-54.6l0.3-52.1c0-23,8.8-41.3,26.5-54.7C528.9,9,543.7,4.8,561.3,4.8"/>
			<path class="st4" d="M409.5,117c-1.2-42.9-37.4-77.1-81.2-74.8c-39,2.1-71,34.2-72.8,73.2c-2.1,44.3,33.2,80.8,77,80.8
				c12.7,0,24.6-3.1,35.2-8.6c0.9,4.8,4.4,31.2-17.7,41.8c-9.1,4.4-19.7,4.8-29.2,1.4c-10.6-3.8-23.3-12.9-23.3-34.7h-42.1
				c0,0,4.6,73.1,77,74.7c1.9,0,3.8-0.1,5.8-0.3c14.5-1.8,71.4-12.1,71.4-65.1v-88.8L409.5,117z M332.6,161.2
				c-21.9,0-39.7-17.8-39.7-39.7c0-21.9,17.8-39.7,39.7-39.7c21.9,0,39.7,17.8,39.7,39.7C372.3,143.4,354.5,161.2,332.6,161.2"/>
			<path class="st4" d="M979.6,117c-1.2-42.9-37.4-77.1-81.2-74.8c-39,2.1-71,34.2-72.8,73.2c-2.1,44.3,33.2,80.8,77,80.8
				c12.7,0,24.6-3.1,35.2-8.6c0.9,4.8,4.4,31.2-17.7,41.8c-9.1,4.4-19.7,4.8-29.2,1.4c-10.6-3.8-23.3-12.9-23.3-34.7h-42.1
				c0,0,4.6,73.1,77,74.7c1.9,0,3.8-0.1,5.8-0.3c14.5-1.8,71.4-12.1,71.4-65.1v-88.8L979.6,117z M902.6,161.2
				c-21.9,0-39.7-17.8-39.7-39.7c0-21.9,17.8-39.7,39.7-39.7c21.9,0,39.7,17.8,39.7,39.7C942.3,143.4,924.5,161.2,902.6,161.2"/>
		</g>
		<path class="st4" d="M150.2,45.5c-16.9,2.5-31.7,4.8-46.5,6.9c-1.5,0.2-3-0.4-4.6-0.6c-8.2-1.5-16.4-3.7-24.6-4.2
			c-11-0.7-22.1,0-33.1-0.3c-4.3-0.1-5.9,1-5.8,5.5c0.3,11.4,0.2,22.8,0,34.2c0,1.9-0.4,4.4-1.6,5.7c-13.5,14.5-24.1,30.8-32,50.6
			c-0.3-2-0.5-2.5-0.5-3.1c0-36.5,0-72.9,0.1-109.4c0-13.2,3.9-16.7,17.1-16.7c18.2,0,36.5-0.1,54.7,0c27.3,0.2,51.2,9,71.2,27.8
			C146.1,43.3,148.2,44.2,150.2,45.5"/>
	</g>
</g>
</svg>
